<?xml version="1.0" encoding="UTF-8" standalone="no"?>
<!DOCTYPE svg PUBLIC "-//W3C//DTD SVG 1.1//EN"
 "http://www.w3.org/Graphics/SVG/1.1/DTD/svg11.dtd">
<!-- Generated by graphviz version 9.0.0 (20230911.1827)
 -->
<!-- Pages: 1 -->
<svg width="620pt" height="476pt"
 viewBox="0.00 0.00 620.00 476.00" xmlns="http://www.w3.org/2000/svg" xmlns:xlink="http://www.w3.org/1999/xlink">
<g id="graph0" class="graph" transform="scale(1 1) rotate(0) translate(4 472)">
<polygon fill="white" stroke="none" points="-4,4 -4,-472 616,-472 616,4 -4,4"/>
<!-- node0 -->
<g id="node1" class="node">
<title>node0</title>
<ellipse fill="none" stroke="black" cx="171" cy="-450" rx="27" ry="18"/>
<text text-anchor="middle" x="171" y="-444.57" font-family="Times New Roman,serif" font-size="14.00">S</text>
</g>
<!-- node1 -->
<g id="node2" class="node">
<title>node1</title>
<ellipse fill="none" stroke="black" cx="27" cy="-378" rx="27" ry="18"/>
<text text-anchor="middle" x="27" y="-372.57" font-family="Times New Roman,serif" font-size="14.00">int</text>
</g>
<!-- node0&#45;&gt;node1 -->
<g id="edge1" class="edge">
<title>node0&#45;&gt;node1</title>
<path fill="none" stroke="black" d="M149.44,-438.52C125.34,-426.8 86.08,-407.72 58.53,-394.32"/>
<polygon fill="black" stroke="black" points="60.12,-391.21 49.6,-389.98 57.06,-397.5 60.12,-391.21"/>
</g>
<!-- node2 -->
<g id="node3" class="node">
<title>node2</title>
<ellipse fill="none" stroke="black" cx="99" cy="-378" rx="27" ry="18"/>
<text text-anchor="middle" x="99" y="-372.57" font-family="Times New Roman,serif" font-size="14.00">P</text>
</g>
<!-- node0&#45;&gt;node2 -->
<g id="edge3" class="edge">
<title>node0&#45;&gt;node2</title>
<path fill="none" stroke="black" d="M156.08,-434.5C146.23,-424.92 133.14,-412.19 121.97,-401.34"/>
<polygon fill="black" stroke="black" points="124.59,-399 114.98,-394.54 119.71,-404.02 124.59,-399"/>
</g>
<!-- node4 -->
<g id="node5" class="node">
<title>node4</title>
<ellipse fill="none" stroke="black" cx="171" cy="-378" rx="27" ry="18"/>
<text text-anchor="middle" x="171" y="-372.57" font-family="Times New Roman,serif" font-size="14.00">N</text>
</g>
<!-- node0&#45;&gt;node4 -->
<g id="edge4" class="edge">
<title>node0&#45;&gt;node4</title>
<path fill="none" stroke="black" d="M171,-431.7C171,-424.41 171,-415.73 171,-407.54"/>
<polygon fill="black" stroke="black" points="174.5,-407.62 171,-397.62 167.5,-407.62 174.5,-407.62"/>
</g>
<!-- node5 -->
<g id="node6" class="node">
<title>node5</title>
<ellipse fill="none" stroke="black" cx="243" cy="-378" rx="27" ry="18"/>
<text text-anchor="middle" x="243" y="-372.57" font-family="Times New Roman,serif" font-size="14.00">;</text>
</g>
<!-- node0&#45;&gt;node5 -->
<g id="edge5" class="edge">
<title>node0&#45;&gt;node5</title>
<path fill="none" stroke="black" d="M185.92,-434.5C195.77,-424.92 208.86,-412.19 220.03,-401.34"/>
<polygon fill="black" stroke="black" points="222.29,-404.02 227.02,-394.54 217.41,-399 222.29,-404.02"/>
</g>
<!-- node6 -->
<g id="node7" class="node">
<title>node6</title>
<ellipse fill="none" stroke="black" cx="315" cy="-378" rx="27" ry="18"/>
<text text-anchor="middle" x="315" y="-372.57" font-family="Times New Roman,serif" font-size="14.00">S</text>
</g>
<!-- node0&#45;&gt;node6 -->
<g id="edge26" class="edge">
<title>node0&#45;&gt;node6</title>
<path fill="none" stroke="black" d="M192.56,-438.52C216.66,-426.8 255.92,-407.72 283.47,-394.32"/>
<polygon fill="black" stroke="black" points="284.94,-397.5 292.4,-389.98 281.88,-391.21 284.94,-397.5"/>
</g>
<!-- node3 -->
<g id="node4" class="node">
<title>node3</title>
<ellipse fill="none" stroke="black" cx="99" cy="-306" rx="27" ry="18"/>
<text text-anchor="middle" x="99" y="-300.57" font-family="Times New Roman,serif" font-size="14.00">b</text>
</g>
<!-- node2&#45;&gt;node3 -->
<g id="edge2" class="edge">
<title>node2&#45;&gt;node3</title>
<path fill="none" stroke="black" d="M99,-359.7C99,-352.41 99,-343.73 99,-335.54"/>
<polygon fill="black" stroke="black" points="102.5,-335.62 99,-325.62 95.5,-335.62 102.5,-335.62"/>
</g>
<!-- node7 -->
<g id="node8" class="node">
<title>node7</title>
<ellipse fill="none" stroke="black" cx="171" cy="-306" rx="27.11" ry="18"/>
<text text-anchor="middle" x="171" y="-300.57" font-family="Times New Roman,serif" font-size="14.00">float</text>
</g>
<!-- node6&#45;&gt;node7 -->
<g id="edge6" class="edge">
<title>node6&#45;&gt;node7</title>
<path fill="none" stroke="black" d="M293.44,-366.52C269.34,-354.8 230.08,-335.72 202.53,-322.32"/>
<polygon fill="black" stroke="black" points="204.12,-319.21 193.6,-317.98 201.06,-325.5 204.12,-319.21"/>
</g>
<!-- node8 -->
<g id="node9" class="node">
<title>node8</title>
<ellipse fill="none" stroke="black" cx="243" cy="-306" rx="27" ry="18"/>
<text text-anchor="middle" x="243" y="-300.57" font-family="Times New Roman,serif" font-size="14.00">P</text>
</g>
<!-- node6&#45;&gt;node8 -->
<g id="edge12" class="edge">
<title>node6&#45;&gt;node8</title>
<path fill="none" stroke="black" d="M300.08,-362.5C290.23,-352.92 277.14,-340.19 265.97,-329.34"/>
<polygon fill="black" stroke="black" points="268.59,-327 258.98,-322.54 263.71,-332.02 268.59,-327"/>
</g>
<!-- node14 -->
<g id="node15" class="node">
<title>node14</title>
<ellipse fill="none" stroke="black" cx="315" cy="-306" rx="27" ry="18"/>
<text text-anchor="middle" x="315" y="-300.57" font-family="Times New Roman,serif" font-size="14.00">N</text>
</g>
<!-- node6&#45;&gt;node14 -->
<g id="edge23" class="edge">
<title>node6&#45;&gt;node14</title>
<path fill="none" stroke="black" d="M315,-359.7C315,-352.41 315,-343.73 315,-335.54"/>
<polygon fill="black" stroke="black" points="318.5,-335.62 315,-325.62 311.5,-335.62 318.5,-335.62"/>
</g>
<!-- node25 -->
<g id="node26" class="node">
<title>node25</title>
<ellipse fill="none" stroke="black" cx="387" cy="-306" rx="27" ry="18"/>
<text text-anchor="middle" x="387" y="-300.57" font-family="Times New Roman,serif" font-size="14.00">;</text>
</g>
<!-- node6&#45;&gt;node25 -->
<g id="edge24" class="edge">
<title>node6&#45;&gt;node25</title>
<path fill="none" stroke="black" d="M329.92,-362.5C339.77,-352.92 352.86,-340.19 364.03,-329.34"/>
<polygon fill="black" stroke="black" points="366.29,-332.02 371.02,-322.54 361.41,-327 366.29,-332.02"/>
</g>
<!-- node26 -->
<g id="node27" class="node">
<title>node26</title>
<ellipse fill="none" stroke="black" cx="459" cy="-306" rx="27" ry="18"/>
<text text-anchor="middle" x="459" y="-300.57" font-family="Times New Roman,serif" font-size="14.00">S</text>
</g>
<!-- node6&#45;&gt;node26 -->
<g id="edge25" class="edge">
<title>node6&#45;&gt;node26</title>
<path fill="none" stroke="black" d="M336.56,-366.52C360.66,-354.8 399.92,-335.72 427.47,-322.32"/>
<polygon fill="black" stroke="black" points="428.94,-325.5 436.4,-317.98 425.88,-319.21 428.94,-325.5"/>
</g>
<!-- node9 -->
<g id="node10" class="node">
<title>node9</title>
<ellipse fill="none" stroke="black" cx="171" cy="-234" rx="27" ry="18"/>
<text text-anchor="middle" x="171" y="-228.57" font-family="Times New Roman,serif" font-size="14.00">*</text>
</g>
<!-- node8&#45;&gt;node9 -->
<g id="edge7" class="edge">
<title>node8&#45;&gt;node9</title>
<path fill="none" stroke="black" d="M228.08,-290.5C218.23,-280.92 205.14,-268.19 193.97,-257.34"/>
<polygon fill="black" stroke="black" points="196.59,-255 186.98,-250.54 191.71,-260.02 196.59,-255"/>
</g>
<!-- node10 -->
<g id="node11" class="node">
<title>node10</title>
<ellipse fill="none" stroke="black" cx="243" cy="-234" rx="27" ry="18"/>
<text text-anchor="middle" x="243" y="-228.57" font-family="Times New Roman,serif" font-size="14.00">P</text>
</g>
<!-- node8&#45;&gt;node10 -->
<g id="edge11" class="edge">
<title>node8&#45;&gt;node10</title>
<path fill="none" stroke="black" d="M243,-287.7C243,-280.41 243,-271.73 243,-263.54"/>
<polygon fill="black" stroke="black" points="246.5,-263.62 243,-253.62 239.5,-263.62 246.5,-263.62"/>
</g>
<!-- node11 -->
<g id="node12" class="node">
<title>node11</title>
<ellipse fill="none" stroke="black" cx="207" cy="-162" rx="27" ry="18"/>
<text text-anchor="middle" x="207" y="-156.57" font-family="Times New Roman,serif" font-size="14.00">*</text>
</g>
<!-- node10&#45;&gt;node11 -->
<g id="edge8" class="edge">
<title>node10&#45;&gt;node11</title>
<path fill="none" stroke="black" d="M234.65,-216.76C230.42,-208.55 225.19,-198.37 220.42,-189.09"/>
<polygon fill="black" stroke="black" points="223.68,-187.79 216,-180.49 217.46,-190.99 223.68,-187.79"/>
</g>
<!-- node12 -->
<g id="node13" class="node">
<title>node12</title>
<ellipse fill="none" stroke="black" cx="279" cy="-162" rx="27" ry="18"/>
<text text-anchor="middle" x="279" y="-156.57" font-family="Times New Roman,serif" font-size="14.00">P</text>
</g>
<!-- node10&#45;&gt;node12 -->
<g id="edge10" class="edge">
<title>node10&#45;&gt;node12</title>
<path fill="none" stroke="black" d="M251.35,-216.76C255.58,-208.55 260.81,-198.37 265.58,-189.09"/>
<polygon fill="black" stroke="black" points="268.54,-190.99 270,-180.49 262.32,-187.79 268.54,-190.99"/>
</g>
<!-- node13 -->
<g id="node14" class="node">
<title>node13</title>
<ellipse fill="none" stroke="black" cx="279" cy="-90" rx="27" ry="18"/>
<text text-anchor="middle" x="279" y="-84.58" font-family="Times New Roman,serif" font-size="14.00">a</text>
</g>
<!-- node12&#45;&gt;node13 -->
<g id="edge9" class="edge">
<title>node12&#45;&gt;node13</title>
<path fill="none" stroke="black" d="M279,-143.7C279,-136.41 279,-127.73 279,-119.54"/>
<polygon fill="black" stroke="black" points="282.5,-119.62 279,-109.62 275.5,-119.62 282.5,-119.62"/>
</g>
<!-- node15 -->
<g id="node16" class="node">
<title>node15</title>
<ellipse fill="none" stroke="black" cx="315" cy="-234" rx="27" ry="18"/>
<text text-anchor="middle" x="315" y="-228.57" font-family="Times New Roman,serif" font-size="14.00">,</text>
</g>
<!-- node14&#45;&gt;node15 -->
<g id="edge13" class="edge">
<title>node14&#45;&gt;node15</title>
<path fill="none" stroke="black" d="M315,-287.7C315,-280.41 315,-271.73 315,-263.54"/>
<polygon fill="black" stroke="black" points="318.5,-263.62 315,-253.62 311.5,-263.62 318.5,-263.62"/>
</g>
<!-- node16 -->
<g id="node17" class="node">
<title>node16</title>
<ellipse fill="none" stroke="black" cx="387" cy="-234" rx="27" ry="18"/>
<text text-anchor="middle" x="387" y="-228.57" font-family="Times New Roman,serif" font-size="14.00">P</text>
</g>
<!-- node14&#45;&gt;node16 -->
<g id="edge15" class="edge">
<title>node14&#45;&gt;node16</title>
<path fill="none" stroke="black" d="M329.92,-290.5C339.77,-280.92 352.86,-268.19 364.03,-257.34"/>
<polygon fill="black" stroke="black" points="366.29,-260.02 371.02,-250.54 361.41,-255 366.29,-260.02"/>
</g>
<!-- node18 -->
<g id="node19" class="node">
<title>node18</title>
<ellipse fill="none" stroke="black" cx="495" cy="-234" rx="27" ry="18"/>
<text text-anchor="middle" x="495" y="-228.57" font-family="Times New Roman,serif" font-size="14.00">N</text>
</g>
<!-- node14&#45;&gt;node18 -->
<g id="edge22" class="edge">
<title>node14&#45;&gt;node18</title>
<path fill="none" stroke="black" d="M336.18,-294.62C341.01,-292.35 346.16,-290.03 351,-288 387.93,-272.52 431.13,-256.95 460.51,-246.73"/>
<polygon fill="black" stroke="black" points="461.31,-250.15 469.62,-243.58 459.03,-243.54 461.31,-250.15"/>
</g>
<!-- node17 -->
<g id="node18" class="node">
<title>node17</title>
<ellipse fill="none" stroke="black" cx="369" cy="-162" rx="27" ry="18"/>
<text text-anchor="middle" x="369" y="-156.57" font-family="Times New Roman,serif" font-size="14.00">c</text>
</g>
<!-- node16&#45;&gt;node17 -->
<g id="edge14" class="edge">
<title>node16&#45;&gt;node17</title>
<path fill="none" stroke="black" d="M382.64,-216.05C380.7,-208.49 378.35,-199.37 376.16,-190.85"/>
<polygon fill="black" stroke="black" points="379.57,-190.07 373.69,-181.25 372.79,-191.81 379.57,-190.07"/>
</g>
<!-- node19 -->
<g id="node20" class="node">
<title>node19</title>
<ellipse fill="none" stroke="black" cx="441" cy="-162" rx="27" ry="18"/>
<text text-anchor="middle" x="441" y="-156.57" font-family="Times New Roman,serif" font-size="14.00">,</text>
</g>
<!-- node18&#45;&gt;node19 -->
<g id="edge16" class="edge">
<title>node18&#45;&gt;node19</title>
<path fill="none" stroke="black" d="M483.02,-217.46C476.23,-208.67 467.6,-197.48 459.92,-187.53"/>
<polygon fill="black" stroke="black" points="462.75,-185.47 453.88,-179.69 457.21,-189.75 462.75,-185.47"/>
</g>
<!-- node20 -->
<g id="node21" class="node">
<title>node20</title>
<ellipse fill="none" stroke="black" cx="513" cy="-162" rx="27" ry="18"/>
<text text-anchor="middle" x="513" y="-156.57" font-family="Times New Roman,serif" font-size="14.00">P</text>
</g>
<!-- node18&#45;&gt;node20 -->
<g id="edge20" class="edge">
<title>node18&#45;&gt;node20</title>
<path fill="none" stroke="black" d="M499.36,-216.05C501.3,-208.49 503.65,-199.37 505.84,-190.85"/>
<polygon fill="black" stroke="black" points="509.21,-191.81 508.31,-181.25 502.43,-190.07 509.21,-191.81"/>
</g>
<!-- node24 -->
<g id="node25" class="node">
<title>node24</title>
<ellipse fill="none" stroke="black" cx="585" cy="-162" rx="27" ry="18"/>
<text text-anchor="middle" x="585" y="-156.57" font-family="Times New Roman,serif" font-size="14.00">N</text>
</g>
<!-- node18&#45;&gt;node24 -->
<g id="edge21" class="edge">
<title>node18&#45;&gt;node24</title>
<path fill="none" stroke="black" d="M511.93,-219.83C525.17,-209.54 543.81,-195.04 558.95,-183.26"/>
<polygon fill="black" stroke="black" points="560.9,-186.18 566.65,-177.27 556.6,-180.65 560.9,-186.18"/>
</g>
<!-- node21 -->
<g id="node22" class="node">
<title>node21</title>
<ellipse fill="none" stroke="black" cx="477" cy="-90" rx="27" ry="18"/>
<text text-anchor="middle" x="477" y="-84.58" font-family="Times New Roman,serif" font-size="14.00">*</text>
</g>
<!-- node20&#45;&gt;node21 -->
<g id="edge17" class="edge">
<title>node20&#45;&gt;node21</title>
<path fill="none" stroke="black" d="M504.65,-144.76C500.42,-136.55 495.19,-126.37 490.42,-117.09"/>
<polygon fill="black" stroke="black" points="493.68,-115.79 486,-108.49 487.46,-118.99 493.68,-115.79"/>
</g>
<!-- node22 -->
<g id="node23" class="node">
<title>node22</title>
<ellipse fill="none" stroke="black" cx="549" cy="-90" rx="27" ry="18"/>
<text text-anchor="middle" x="549" y="-84.58" font-family="Times New Roman,serif" font-size="14.00">P</text>
</g>
<!-- node20&#45;&gt;node22 -->
<g id="edge19" class="edge">
<title>node20&#45;&gt;node22</title>
<path fill="none" stroke="black" d="M521.35,-144.76C525.58,-136.55 530.81,-126.37 535.58,-117.09"/>
<polygon fill="black" stroke="black" points="538.54,-118.99 540,-108.49 532.32,-115.79 538.54,-118.99"/>
</g>
<!-- node23 -->
<g id="node24" class="node">
<title>node23</title>
<ellipse fill="none" stroke="black" cx="549" cy="-18" rx="27" ry="18"/>
<text text-anchor="middle" x="549" y="-12.57" font-family="Times New Roman,serif" font-size="14.00">d</text>
</g>
<!-- node22&#45;&gt;node23 -->
<g id="edge18" class="edge">
<title>node22&#45;&gt;node23</title>
<path fill="none" stroke="black" d="M549,-71.7C549,-64.41 549,-55.73 549,-47.54"/>
<polygon fill="black" stroke="black" points="552.5,-47.62 549,-37.62 545.5,-47.62 552.5,-47.62"/>
</g>
</g>
</svg>
